# xmcd
#
# Track frame offsets:
#	150
#	11579
#	30291
#	40977
#	52753
#	69627
#	85669
#	97803
#	111880
#	132037
#	143476
#	161473
#	179446
#	201941
#	219968
#
# Disc length: 3059 seconds
# Revision: 0
# Processed by: cddbd v1.5.2PL0 Copyright (c) Steve Scherf et al.
# Submitted via: dBpowerAMP V12.0
#
DISCID=b70bf10f
DTITLE=Loudon Wainwright III - High Wide and Handsome • The Charlie Poole Project
DYEAR=2009
DGENRE=Folk
TTITLE0=The Man in the Moon
TTITLE1=The Deal
TTITLE2=No Knees
TTITLE3=Moving Day
TTITLE4=Old and Only in the Way
TTITLE5=Ragtime Annie
TTITLE6=Sweet Sunny South
TTITLE7=The Letter That Never Came
TTITLE8=Awful Hungry Hash House
TTITLE9=Rowena
TTITLE10=Didn't He Ramble
TTITLE11=Ramblin' Blues
TTITLE12=Charlie's Last Song
TTITLE13=Beautiful
TTITLE14=High Wide and Handsome (Reprise)
EXTD=
EXTT0=
EXTT1=
EXTT2=
EXTT3=
EXTT4=
EXTT5=
EXTT6=
EXTT7=
EXTT8=
EXTT9=
EXTT10=
EXTT11=
EXTT12=
EXTT13=
EXTT14=
PLAYORDER=
